<svg id="Calque_1" data-name="Calque 1" xmlns="http://www.w3.org/2000/svg" xmlns:xlink="http://www.w3.org/1999/xlink" viewBox="0 0 390.82 448.69"><defs><style>.cls-1{fill:#fccb00;}.cls-2{fill:#fff;}.cls-3{fill:#2357a3;}.cls-4{fill:#3d6db3;}.cls-5{fill:#5d88c6;}.cls-6{fill:#ffeea7;}.cls-7{fill:#ffe886;}.cls-8{fill:#ffe163;}.cls-9{fill:#ffda42;}.cls-10{fill:#ffd320;}.cls-11{fill:url(#Dégradé_sans_nom_32);}</style><linearGradient id="Dégradé_sans_nom_32" x1="256.19" y1="218.09" x2="256.19" y2="178.47" gradientUnits="userSpaceOnUse"><stop offset="0.4" stop-color="#ffeea7"/><stop offset="1" stop-color="#fccb00"/></linearGradient></defs><title>Logo Restart ESC 2017</title><path class="cls-1" d="M389.59,423.17c-0.41,0-.83,0-1.24,0H102.6a9.36,9.36,0,0,1-9.41-9.67V386.23H65.81c-6.33,0-10.75-4.46-10.75-10.84v-53a10.44,10.44,0,0,1,2.66-7.62,10.57,10.57,0,0,1,7.77-3.37h0.44l368.94-.09,0.55,0a10.35,10.35,0,0,1,10.43,11v7.23c0,6.38-4.46,10.84-10.84,10.84h-5.32V375.4c0,6.38-4.46,10.84-10.84,10.84H405.47a16.17,16.17,0,0,1,1.37,6.59,17,17,0,0,1-.93,5.69,16.06,16.06,0,0,1,1.81,7.5,18.16,18.16,0,0,1-2.76,9.44c-3.14,4.83-8.89,7.71-15.37,7.71h0Z" transform="translate(-55.04 -25.65)"/><path class="cls-1" d="M248.82,320.85a139.35,139.35,0,0,1-23.92-2.14l-0.15,0-1.91-.33c-1.5-.28-3-0.59-4.52-0.92l-0.31-.07c-2.3-.51-4.59-1.07-6.84-1.69l-0.18,0a146.8,146.8,0,0,1-30.24-12l-0.14-.07c-1-.51-1.85-1-2.73-1.5l-0.22-.13c-0.78-.44-1.57-0.89-2.35-1.35l-0.16-.09c-1.78-1-3.56-2.15-5.29-3.27l-0.18-.11c-3.45-2.24-6.83-4.64-10.06-7.15l-0.11-.08c-1.64-1.28-3.27-2.6-4.86-3.95l-0.31-.26c-1.47-1.25-2.89-2.51-4.25-3.76l-0.61-.57c-1.76-1.64-3.51-3.34-5.18-5.07l-0.24-.25c-1-1-2-2.08-3-3.14-1.21-1.33-2.41-2.69-3.67-4.17l-0.73-.86-2.09-2.56-1-1.28-1-1.24-0.12-.15c-1.82-2.39-3.55-4.81-5.17-7.21q-0.65-1-1.29-2c-0.43-.66-0.87-1.36-1.3-2.05l-0.45-.73c-1.6-2.6-3.12-5.25-4.54-7.89L119,241.3l-0.78-1.52-0.51-1c-0.54-1.09-1-2.11-1.51-3.13l-0.9-1.94-0.24-.56c-0.36-.8-0.74-1.67-1.11-2.55s-0.79-1.92-1.18-2.89c-0.31-.77-0.6-1.54-0.89-2.31l-0.4-1.06c-0.56-1.53-1.11-3.1-1.66-4.78-0.19-.57-0.38-1.15-0.56-1.74l-0.45-1.44-0.2-.69c-0.36-1.22-.72-2.45-1.05-3.7l-0.33-1.24-0.29-1.12c-0.24-1-.47-1.89-0.69-2.86l0,0-0.35-1.63-0.43-2.06c-0.11-.56-0.22-1.09-0.32-1.63l-0.11-.54c-0.09-.46-0.18-0.91-0.26-1.36-0.22-1.21-.43-2.5-0.64-3.9l-0.13-.89-0.17-1.24c-0.11-.81-0.21-1.58-0.31-2.37l-0.06-.52c-0.12-1-.23-2-0.33-3-0.07-.7-0.13-1.4-0.19-2.1,0-.53-0.08-1-0.12-1.46-0.05-.73-0.1-1.46-0.14-2.18,0,0-.06-1.07-0.08-1.4,0-.8-0.07-1.6-0.09-2.41,0,0,0-.9,0-1.18,0-1.18,0-2.39,0-3.59,0-1.44,0-2.87.07-4.3l0-1.12c0-.77.06-1.55,0.1-2.32l0.13-2.17c0-.42.05-0.8,0.08-1.18l0.08-1.1,0.19-2.17c0-.49.09-1,0.14-1.42s0.12-1.06.18-1.57l0.08-.71c0.05-.44.1-0.86,0.16-1.28s0.15-1.12.24-1.7l0.25-1.71c0.1-.64.2-1.21,0.29-1.79,0,0,.25-1.5.3-1.74,0.2-1.13.42-2.27,0.65-3.4l0.15-.69c0.18-.88.38-1.8,0.59-2.7,0.07-.31.31-1.3,0.31-1.3,0.16-.67.33-1.38,0.51-2.08,0.1-.39.37-1.4,0.37-1.4,0.17-.65.34-1.29,0.52-1.93,0.13-.47.26-0.93,0.4-1.39,0.2-.69.38-1.3,0.57-1.92s0.31-1,.46-1.48,0.39-1.21.59-1.82,0.32-1,.48-1.44,0.43-1.24.65-1.86l0.5-1.38c0.21-.57.43-1.14,0.65-1.72L112.7,119q0.61-1.53,1.25-3l0.74-1.71c0.2-.47.41-0.93,0.61-1.4l0.51-1.11,0.25-.53c0.22-.47.44-0.95,0.66-1.42l0.73-1.49,0.76-1.52L119,105.2l0.78-1.47c0.27-.5.55-1,0.83-1.53l0.79-1.42,0.86-1.51,0.8-1.35L124,96.4l0.78-1.26c1.23-2,2.54-4,3.88-5.9l0.74-1.06,0.92-1.28,1-1.37,1.22-1.62,0.79-1,1.26-1.6,0.78-1,1.34-1.62,0.75-.89,1.42-1.65,0.63-.72c0.52-.59,1-1.18,1.59-1.77l0.09-.09c1.94-2.12,4-4.25,6.15-6.32l0.38-.37c0.61-.59,1.21-1.15,1.81-1.71l0.59-.55L151.85,63l0.65-.58,1.83-1.58,0.62-.53,1.91-1.58,0.5-.41c0.71-.57,1.39-1.12,2.09-1.66l0.24-.19c3.16-2.45,6.5-4.82,9.9-7l0.17-.11c0.78-.51,1.57-1,2.37-1.51l0.36-.23c0.78-.48,1.56-1,2.34-1.42l0.47-.28c0.76-.45,1.55-0.9,2.34-1.35l0.42-.23c0.81-.45,1.64-0.91,2.47-1.35l0.19-.1a147.38,147.38,0,0,1,17.09-7.74l0.24-.09q1.37-.51,2.75-1l0.33-.12c0.93-.33,1.86-0.64,2.79-0.95l0.29-.09a146.75,146.75,0,0,1,18.62-4.75A148.83,148.83,0,0,1,250,25.65c81.39,0,147.6,66.21,147.6,147.6,0,31.1-10.86,56.38-14.19,63.38A147.64,147.64,0,0,1,340,290.23a119.59,119.59,0,0,1-12.59,9.29,129.67,129.67,0,0,1-36.69,15.9A146,146,0,0,1,251,320.86h-2.15Zm32.05-122.06a19.6,19.6,0,0,0,.84,2.4c1.29,3.19,3.3,5.17,10,10.8,15.42,12.88,17.16,13.81,21.83,16.28l0.62,0.33c12.13,6.43,20.9,17.27,24.07,29.72q0.34,1.33.59,2.69a94.11,94.11,0,0,0,19.3-56.82A92.32,92.32,0,0,0,339.36,148l-11.8-1.15-0.92-.1a16.81,16.81,0,0,0-1.77-.14,3.06,3.06,0,0,0-.55,0,16.92,16.92,0,0,0-2.44,3.07l1.49,0.44,0.43,7.46c0.33,7.76-5.89,10.18-10,11.78l-0.12,0c-1.65,4.76-4.76,9.83-9.46,15.4A41.41,41.41,0,0,1,280.87,198.79Zm-62.18,24.88c0.61,0.38,1.22.75,1.86,1.11s1.27,0.71,1.88,1l0.2,0.11c1.19,0.62,2.52,1.26,3.81,1.81l0.3,0.13c-0.49-1.61-.91-3.27-1.27-5-1.46-7-2.93-17.56,1.05-29.07a49.13,49.13,0,0,1,4.42-9.4A39.24,39.24,0,0,1,215.43,170a11,11,0,0,1-1.44-6.07,9.69,9.69,0,0,1,5.34-8.28,9,9,0,0,1,3.93-.86,15.3,15.3,0,0,1,8.8,3.24,8.89,8.89,0,0,0,1.86,1.11l0.34,0.06a4.74,4.74,0,0,0,.62,0,22.11,22.11,0,0,0,2.21-.16,13.59,13.59,0,0,1-1-1.89,10.81,10.81,0,0,1,.49-9.54,10.63,10.63,0,0,1,9.25-5.37,13,13,0,0,1,5.86,1.55,12.16,12.16,0,0,0,4.17,1.35l0.61,0c3.4,0,6.93-2.21,9.51-3.82a18.49,18.49,0,0,0,3-2.31,33.38,33.38,0,0,1,7-5,34.79,34.79,0,0,1,16.23-4.49,18.9,18.9,0,0,1,3.42.29l0.69,0.15a47.74,47.74,0,0,1,13-7.85,93.59,93.59,0,0,0-78-5.27l-0.39.14c-0.84.28-1.75,0.61-2.76,1l-1.53.63-0.44.19c-1.21.53-2.46,1.12-3.67,1.75l-0.52.28-1.27.69-0.66.38-1.15.69-0.61.37a59.78,59.78,0,0,0-24,29.29l-0.3.82-0.3.84-0.27.79c-0.09.28-.52,1.64-0.52,1.64-0.12.41-.26,0.89-0.39,1.38l-0.18.71c-0.08.29-.15,0.6-0.23,0.91s-0.12.49-.17,0.71-0.16.71-.23,1.05l-0.14.68c-0.09.46-.18,1-0.27,1.51l-0.09.59c-0.06.38-.12,0.76-0.17,1.14l-0.09.65c-0.06.45-.11,0.9-0.16,1.36l0,0.41c0,0.49-.09,1.06-0.13,1.64l0,0.52q0,0.65-.07,1.31l0,0.56c0,0.56,0,1.15,0,1.75s0,1.4,0,2.1l0,0.53c0,0.65.07,1.34,0.12,2V178c0.06,0.68.12,1.31,0.19,1.94l0.06,0.51c0.07,0.62.16,1.28,0.27,1.94l0.05,0.32c0.09,0.58.2,1.18,0.31,1.77l0.08,0.43c0.12,0.62.26,1.27,0.41,1.91l0.08,0.34c0.14,0.6.29,1.17,0.45,1.73l0.11,0.4c0.16,0.59.35,1.22,0.55,1.85l0.12,0.37c0.18,0.57.38,1.14,0.58,1.71l0.08,0.22c0.23,0.63.47,1.25,0.71,1.86l0.13,0.32c0.26,0.63.51,1.22,0.77,1.81l0.07,0.17c0.25,0.55.53,1.15,0.83,1.75l0.18,0.37c0.59,1.18,1.24,2.37,1.91,3.52L199,203.6c0.68,1.14,1.42,2.29,2.19,3.41l0.18,0.26c0.38,0.53.78,1.09,1.19,1.64s0.86,1.12,1.28,1.64l0.17,0.22c0.4,0.5.85,1,1.3,1.54l0.07,0.08c0.46,0.52.91,1,1.37,1.51l1.61,1.65c0.54,0.53,1.05,1,1.59,1.51s1.06,0.95,1.57,1.39l0.14,0.12c1.06,0.9,2.17,1.78,3.3,2.6l0.12,0.09Z" transform="translate(-55.04 -25.65)"/><path class="cls-2" d="M138.64,262l-0.93-1.18-0.92-1.19-0.13-.17c-1.74-2.29-3.42-4.62-5-6.94q-0.63-.94-1.24-1.89c-0.43-.65-0.85-1.33-1.27-2l-0.44-.71c-1.54-2.5-3-5-4.36-7.59l-0.75-1.41-0.75-1.46-0.48-1c-0.52-1.06-1-2-1.46-3l-0.86-1.87-0.22-.51c-0.36-.8-0.73-1.64-1.09-2.49s-0.77-1.85-1.14-2.78c-0.29-.74-0.57-1.48-0.85-2.22l-0.39-1c-0.54-1.46-1.06-3-1.61-4.61-0.18-.55-0.37-1.11-0.54-1.67l-0.44-1.4-0.19-.64q-0.53-1.78-1-3.58l-0.28-1c-0.1-.39-0.21-0.78-0.31-1.17v0l0-.14c-0.34-1.35-.67-2.74-1-4.22l0,0L110.54,202c-0.11-.54-0.21-1.08-0.32-1.62l-0.09-.49c-0.08-.42-0.17-0.85-0.24-1.28-0.21-1.17-.41-2.41-0.62-3.75l-0.13-.88L109,192.78c-0.1-.76-0.2-1.51-0.29-2.27l-0.06-.49c-0.12-1-.22-2-0.32-2.95-0.07-.68-0.12-1.35-0.18-2,0-.51-0.08-1-0.11-1.41-0.05-.7-0.09-1.4-0.13-2.11,0,0-.06-1-0.07-1.35,0-.77-0.06-1.55-0.09-2.32,0,0,0-.87,0-1.14,0-1.15,0-2.31,0-3.47,0-1.39,0-2.77.07-4.14l0-1.09c0-.75.06-1.49,0.09-2.24l0.13-2.13c0-.37,0-0.73.07-1.1l0.08-1.09,0.19-2.11c0-.45.09-0.9,0.14-1.35s0.12-1,.18-1.53l0.08-.69c0-.4.1-0.79,0.15-1.19s0.15-1.1.23-1.65l0.25-1.7c0.09-.57.18-1.13,0.28-1.68,0,0,.24-1.43.28-1.66,0.2-1.09.4-2.19,0.63-3.28l0.14-.64c0.18-.88.37-1.76,0.57-2.63,0.07-.3.29-1.23,0.29-1.23,0.16-.67.32-1.35,0.49-2,0.1-.38.35-1.35,0.35-1.35,0.17-.62.33-1.24,0.5-1.86s0.27-.94.4-1.41,0.35-1.19.53-1.79l0.44-1.42c0.18-.59.38-1.17,0.57-1.76l0.47-1.39c0.21-.6.42-1.19,0.63-1.79l0.48-1.33c0.2-.55.41-1.1,0.62-1.65l0.55-1.43q0.59-1.49,1.2-2.95l0.63-1.45c0.22-.51.45-1,0.68-1.54l0.48-1,0.2-.44c0.23-.49.45-1,0.69-1.47l0.7-1.44,0.73-1.47,0.76-1.47,0.74-1.41c0.26-.5.53-1,0.8-1.48l0.76-1.36,0.83-1.47,0.77-1.3,0.89-1.49,0.74-1.19c1.2-1.92,2.46-3.84,3.75-5.7l0.71-1,1-1.34,0.9-1.24,1.16-1.54,0.78-1,1.2-1.53,0.76-.95,1.27-1.55,0.73-.86c0.45-.53.9-1.06,1.36-1.58l0.61-.69c0.5-.57,1-1.14,1.53-1.71l0.06-.07c1.89-2.06,3.89-4.12,6-6.12l0.4-.39c0.56-.54,1.14-1.08,1.72-1.62l0.59-.55,1.7-1.54,0.64-.56,1.75-1.51,0.62-.52,1.83-1.51,0.48-.38c0.69-.56,1.35-1.09,2-1.61l0.22-.17c3-2.36,6.28-4.67,9.57-6.81l0.15-.1c0.76-.49,1.53-1,2.3-1.46l0.37-.23c0.74-.46,1.49-0.91,2.25-1.36l0.46-.27,2.26-1.3,0.4-.22q1.19-.67,2.39-1.31l0.17-.09A142.13,142.13,0,0,1,199.68,40l0.25-.1,2.63-1,0.31-.11c0.9-.32,1.79-0.62,2.69-0.91l0.28-.09a141.46,141.46,0,0,1,18-4.58A143.6,143.6,0,0,1,250,30.88c78.5,0,142.37,63.87,142.37,142.37,0,28.7-9.7,52.76-13.68,61.14a142.16,142.16,0,0,1-42,51.77,113.92,113.92,0,0,1-12.13,9,124.77,124.77,0,0,1-35.27,15.26A140.91,140.91,0,0,1,251,315.63h-2.14a134,134,0,0,1-23-2.06l-0.22,0-1.81-.32c-1.43-.27-2.9-0.56-4.37-0.89l-0.34-.07c-2.17-.48-4.38-1-6.57-1.62l-0.17,0A141.66,141.66,0,0,1,183.21,299l-0.16-.08c-0.89-.48-1.75-0.95-2.6-1.43l-0.23-.13-2.26-1.3-0.15-.09c-1.71-1-3.44-2.07-5.11-3.16l-0.18-.11c-3.31-2.15-6.58-4.47-9.7-6.89l-0.13-.1c-1.55-1.2-3.11-2.48-4.66-3.79l-0.32-.27c-1.39-1.19-2.77-2.4-4.09-3.62L153,277.5c-1.7-1.58-3.38-3.23-5-4.89l-0.23-.24c-1-1-1.93-2-2.86-3-1.18-1.29-2.33-2.6-3.54-4l-0.73-.86-2-2.4Zm136.66-67.65a18.22,18.22,0,0,0,1.55,8.84c1.8,4.43,4.59,7,11.54,12.85,15.84,13.24,17.72,14.23,22.74,16.89l0.62,0.33c10.82,5.74,18.64,15.36,21.45,26.39a41,41,0,0,1,.88,14.73,98.56,98.56,0,0,0,8-131.32l-14-1.37-0.81-.09a20.94,20.94,0,0,0-2.39-.18,6.12,6.12,0,0,0-3.2.74c-2.15,1.26-5.39,6.43-7.9,10.71,0.34,0.07.68,0.15,1,.25l3.59,1.06,0.22,3.79c0.17,3.94-2.85,5.12-6.67,6.6-0.67.26-1.68,0.65-2.53,1-1.1,4.72-4.12,10-9.16,15.95A36.16,36.16,0,0,1,275.31,194.31Zm-46.46-32.2a12.86,12.86,0,0,0,3.85,2.07c0.43,0.1.86,0.16,0.86,0.16a9.94,9.94,0,0,0,1.33.08,37.25,37.25,0,0,0,4-.33l2.21-.25c3.72-.38,5.59-0.58,7.36-0.58H249c-4-2.39-7.07-5.88-8-8.14a5.52,5.52,0,0,1,.22-5,5.4,5.4,0,0,1,4.7-2.72,8.1,8.1,0,0,1,3.62,1,17,17,0,0,0,6,1.83c0.35,0,.7,0,1,0,4.9,0,9.34-2.78,12.28-4.62a23.54,23.54,0,0,0,3.74-2.84,28.43,28.43,0,0,1,6.07-4.3,29.41,29.41,0,0,1,13.72-3.85,13.71,13.71,0,0,1,2.47.2,5.44,5.44,0,0,1,2.56,1.22l0.23-.24c3.43-3.34,9.43-7.55,14.25-9.12a14.07,14.07,0,0,1,4.31-.64c3.37,0,8.8,1.05,15.56,6.06l2.23,1.65A98.65,98.65,0,0,0,229.6,112l-0.2.07c-0.94.31-1.92,0.68-3,1.1l-1.66.68-0.43.18c-1.38.6-2.74,1.25-4.05,1.93l-0.57.3-1.37.75-0.68.39-1.29.77-0.61.37a65.08,65.08,0,0,0-26.15,31.9l-0.33.9-0.32.91-0.29.86c-0.1.3-.35,1.1-0.35,1.1l-0.19.62c-0.15.51-.3,1-0.44,1.56l-0.2.77c-0.08.33-.17,0.67-0.25,1s-0.13.53-.18,0.79-0.17.76-.25,1.14l-0.14.66c-0.11.56-.21,1.14-0.31,1.71l-0.1.65c-0.07.41-.13,0.82-0.18,1.24L186,165c-0.07.51-.12,1-0.18,1.52l0,0.36c-0.06.61-.11,1.23-0.15,1.86l0,0.56q0,0.7-.07,1.42l0,0.58c0,0.64,0,1.28,0,1.93s0,1.52,0,2.28l0,0.54c0,0.75.07,1.49,0.13,2.24l0,0.21c0.06,0.69.12,1.37,0.2,2.06l0.06,0.52c0.09,0.71.18,1.44,0.3,2.16l0.06,0.34c0.1,0.63.22,1.28,0.34,1.92l0.08,0.44c0.14,0.72.3,1.43,0.46,2.13l0.09,0.38c0.15,0.63.31,1.26,0.48,1.87l0.1,0.37q0.29,1,.62,2.07l0.14,0.42c0.2,0.61.41,1.24,0.63,1.86l0.07,0.19c0.27,0.74.53,1.42,0.8,2.09l0.13,0.33c0.3,0.72.57,1.36,0.85,2l0,0.1c0.3,0.67.61,1.32,0.94,2l0.18,0.37c0.65,1.3,1.36,2.6,2.09,3.85l0.18,0.31c0.76,1.27,1.56,2.52,2.4,3.73l0.18,0.26c0.43,0.61.86,1.21,1.31,1.81s0.94,1.22,1.39,1.78l0.17,0.21c0.46,0.56.94,1.14,1.44,1.7l0.1,0.11q0.72,0.82,1.47,1.62l0.09,0.1,1.59,1.62,0.13,0.12q0.8,0.78,1.67,1.58t1.71,1.51l0.14,0.12c1.17,1,2.38,1.94,3.59,2.83l0.19,0.14,3.77,2.54,0.11,0.07q1,0.6,2,1.2t2,1.12l0.17,0.09c1.34,0.7,2.77,1.38,4.2,2l0.1,0c0.71,0.31,1.45.61,2.19,0.9a63.86,63.86,0,0,0,9.39,2.84,47,47,0,0,1-2.65-5.36,49.49,49.49,0,0,1-2.81-9.16c-1.33-6.36-2.68-16,.88-26.29A44.38,44.38,0,0,1,239,182c-10.83-2.92-17.59-11.82-19-14.46a5.87,5.87,0,0,1-.83-3.26,4.53,4.53,0,0,1,2.4-3.92C223.71,159.29,227.09,160.74,228.84,162.11Z" transform="translate(-55.04 -25.65)"/><path class="cls-1" d="M246.84,473c-78.48-28.85-118.45-79.62-138.17-117.13-21.42-40.75-24.17-74.62-24.27-76l0-.39v-212L93,66c0.79-.14,79.61-13.77,157.42-13.77S407.08,65.84,407.87,66l8.66,1.51v212l0,0.38c-0.11,1.43-2.86,35.3-24.27,76C372.52,393.4,332.55,444.17,254.06,473l-3.61,1.32Z" transform="translate(-55.04 -25.65)"/><path class="cls-2" d="M248.64,468.11c-76.92-28.28-116.06-78-135.34-114.65-20.93-39.83-23.58-72.62-23.69-74V71.89l4.33-.76c0.78-.14,79.15-13.69,156.52-13.69S406.19,71,407,71.13l4.33,0.76V279.46c-0.1,1.38-2.75,34.17-23.68,74-19.28,36.7-58.42,86.37-135.35,114.65l-1.8.66Z" transform="translate(-55.04 -25.65)"/><path class="cls-3" d="M250.45,62.67c77.81,0,155.62,13.62,155.62,13.62V279.07s-9.72,130.5-155.62,184.13C104.56,409.57,94.83,279.07,94.83,279.07V76.28S172.64,62.67,250.45,62.67Z" transform="translate(-55.04 -25.65)"/><path class="cls-4" d="M123.11,325.51C131.66,402,250,462.76,250,462.76S368.34,402,376.89,325.51L377.67,72c-29.6-4-78.42-9.35-127.23-9.35-49.31,0-98.61,5.47-128.12,9.47Z" transform="translate(-55.04 -25.65)"/><path class="cls-5" d="M250.45,462.76S368.79,402,377.34,325.51L378.12,72c-29.6-4-78.42-9.35-127.23-9.35" transform="translate(-55.04 -25.65)"/><path class="cls-2" d="M138.64,262l-0.93-1.18-0.92-1.19-0.13-.17c-1.74-2.29-3.42-4.62-5-6.94q-0.63-.94-1.24-1.89c-0.43-.65-0.85-1.33-1.27-2l-0.44-.71c-1.54-2.5-3-5-4.36-7.59l-0.75-1.41-0.75-1.46-0.48-1c-0.52-1.06-1-2-1.46-3l-0.86-1.87-0.22-.51c-0.36-.8-0.73-1.64-1.09-2.49s-0.77-1.85-1.14-2.78c-0.29-.74-0.57-1.48-0.85-2.22l-0.39-1c-0.54-1.46-1.06-3-1.61-4.61-0.18-.55-0.37-1.11-0.54-1.67l-0.44-1.4-0.19-.64q-0.53-1.78-1-3.58l-0.28-1c-0.1-.39-0.21-0.78-0.31-1.17v0l0-.14c-0.34-1.35-.67-2.74-1-4.22l0,0L110.53,202c-0.11-.54-0.21-1.08-0.32-1.62l-0.09-.49c-0.08-.42-0.17-0.85-0.24-1.28-0.21-1.17-.41-2.41-0.62-3.75l-0.13-.88L109,192.78c-0.1-.76-0.2-1.51-0.29-2.27l-0.06-.49c-0.12-1-.22-2-0.32-2.95-0.07-.68-0.12-1.35-0.18-2,0-.51-0.08-1-0.11-1.41-0.05-.7-0.09-1.4-0.13-2.11,0,0-.06-1-0.07-1.35,0-.77-0.06-1.55-0.09-2.32,0,0,0-.87,0-1.14,0-1.15,0-2.31,0-3.47,0-1.39,0-2.77.07-4.14l0-1.09c0-.75.06-1.49,0.09-2.24l0.13-2.13c0-.37,0-0.73.07-1.1l0.08-1.09,0.19-2.11c0-.45.09-0.9,0.14-1.35s0.12-1,.18-1.53l0.08-.69c0-.4.1-0.79,0.15-1.19s0.15-1.1.23-1.65l0.25-1.7c0.09-.57.18-1.13,0.28-1.68,0,0,.24-1.43.28-1.66,0.2-1.09.4-2.19,0.63-3.28l0.14-.64c0.18-.88.37-1.76,0.57-2.63,0.07-.3.29-1.23,0.29-1.23,0.16-.67.32-1.35,0.49-2,0.1-.38.35-1.35,0.35-1.35,0.17-.62.33-1.24,0.5-1.86s0.27-.94.4-1.41,0.35-1.19.53-1.79l0.44-1.42c0.18-.59.38-1.17,0.57-1.76l0.47-1.39c0.21-.6.42-1.19,0.63-1.79l0.48-1.33c0.2-.55.41-1.1,0.62-1.65l0.55-1.43q0.59-1.49,1.2-2.95l0.63-1.45c0.22-.51.45-1,0.68-1.54l0.48-1,0.2-.44c0.23-.49.45-1,0.69-1.47l0.7-1.44,0.73-1.47,0.76-1.47,0.74-1.41c0.26-.5.53-1,0.8-1.48l0.76-1.36,0.83-1.47,0.77-1.3,0.89-1.49,0.74-1.19c1.2-1.92,2.46-3.84,3.75-5.7l0.71-1,1-1.34,0.9-1.24,1.16-1.54,0.78-1,1.2-1.53,0.76-.95,1.27-1.55,0.73-.86c0.45-.53.9-1.06,1.36-1.58l0.61-.69c0.5-.57,1-1.14,1.53-1.71l0.06-.07c1.89-2.06,3.89-4.12,6-6.12l0.4-.39c0.56-.54,1.14-1.08,1.72-1.62l0.59-.55,1.7-1.54,0.64-.56,1.75-1.51,0.62-.52,1.83-1.51,0.48-.38c0.69-.56,1.35-1.09,2-1.61l0.22-.17c3-2.36,6.28-4.67,9.57-6.81l0.15-.1c0.76-.49,1.53-1,2.3-1.46l0.37-.23c0.74-.46,1.49-0.91,2.25-1.36l0.46-.27,2.26-1.3,0.4-.22q1.19-.67,2.39-1.31l0.17-.09A142.13,142.13,0,0,1,199.67,40l0.25-.1,2.63-1,0.31-.11c0.9-.32,1.79-0.62,2.69-0.91l0.28-.09a141.46,141.46,0,0,1,18-4.58A143.6,143.6,0,0,1,250,30.88c78.5,0,142.37,63.87,142.37,142.37,0,28.7-9.7,52.76-13.68,61.14a142.16,142.16,0,0,1-42,51.77,113.92,113.92,0,0,1-12.13,9,124.77,124.77,0,0,1-35.27,15.26A140.91,140.91,0,0,1,251,315.63h-2.14a134,134,0,0,1-23-2.06l-0.22,0-1.81-.32c-1.43-.27-2.9-0.56-4.37-0.89l-0.34-.07c-2.17-.48-4.38-1-6.57-1.62l-0.17,0A141.66,141.66,0,0,1,183.2,299l-0.16-.08c-0.89-.48-1.75-0.95-2.6-1.43l-0.23-.13-2.26-1.3-0.15-.09c-1.71-1-3.44-2.07-5.11-3.16l-0.18-.11c-3.31-2.15-6.58-4.47-9.7-6.89l-0.13-.1c-1.55-1.2-3.11-2.48-4.66-3.79l-0.32-.27c-1.39-1.19-2.77-2.4-4.09-3.62L153,277.5c-1.7-1.58-3.38-3.23-5-4.89l-0.23-.24c-1-1-1.93-2-2.86-3-1.18-1.29-2.33-2.6-3.54-4l-0.73-.86-2-2.4ZM275.3,194.32a18.22,18.22,0,0,0,1.55,8.84c1.8,4.43,4.59,7,11.54,12.85,15.84,13.24,17.72,14.23,22.74,16.89l0.62,0.33c10.82,5.74,18.64,15.36,21.45,26.39a41,41,0,0,1,.88,14.73,98.56,98.56,0,0,0,8-131.32l-14-1.37-0.81-.09a20.94,20.94,0,0,0-2.39-.18,6.12,6.12,0,0,0-3.2.74c-2.15,1.26-5.39,6.43-7.9,10.71,0.34,0.07.68,0.15,1,.25l3.59,1.06,0.22,3.79c0.17,3.94-2.85,5.12-6.67,6.6-0.67.26-1.68,0.65-2.53,1-1.1,4.72-4.12,10-9.16,15.95A36.16,36.16,0,0,1,275.3,194.32Zm-46.46-32.2a12.86,12.86,0,0,0,3.85,2.07c0.43,0.1.86,0.16,0.86,0.16a9.94,9.94,0,0,0,1.33.08,37.25,37.25,0,0,0,4-.33l2.21-.25c3.72-.38,5.59-0.58,7.36-0.58H249c-4-2.39-7.07-5.88-8-8.14a5.52,5.52,0,0,1,.22-5,5.4,5.4,0,0,1,4.7-2.72,8.1,8.1,0,0,1,3.62,1,17,17,0,0,0,6,1.83c0.35,0,.7,0,1,0,4.9,0,9.34-2.78,12.28-4.62a23.54,23.54,0,0,0,3.74-2.84,28.43,28.43,0,0,1,6.07-4.3,29.41,29.41,0,0,1,13.72-3.85,13.71,13.71,0,0,1,2.47.2,5.44,5.44,0,0,1,2.56,1.22l0.23-.24c3.43-3.34,9.43-7.55,14.25-9.12a14.07,14.07,0,0,1,4.31-.64c3.37,0,8.8,1.05,15.56,6.06l2.23,1.65A98.65,98.65,0,0,0,229.59,112l-0.2.07c-0.94.31-1.92,0.68-3,1.1l-1.66.68-0.43.18c-1.38.6-2.74,1.25-4.05,1.93l-0.57.3-1.37.75-0.68.39-1.29.77-0.61.37a65.08,65.08,0,0,0-26.15,31.9l-0.33.9-0.32.91-0.29.86c-0.1.3-.35,1.1-0.35,1.1l-0.19.62c-0.15.51-.3,1-0.44,1.56l-0.2.77c-0.08.33-.17,0.67-0.25,1s-0.13.53-.18,0.79-0.17.76-.25,1.14l-0.14.66c-0.11.56-.21,1.14-0.31,1.71l-0.1.65c-0.07.41-.13,0.82-0.18,1.24L186,165c-0.07.51-.12,1-0.18,1.52l0,0.36c-0.06.61-.11,1.23-0.15,1.86l0,0.56q0,0.7-.07,1.42l0,0.58c0,0.64,0,1.28,0,1.93s0,1.52,0,2.28l0,0.54c0,0.75.07,1.49,0.13,2.24l0,0.21c0.06,0.69.12,1.37,0.2,2.06l0.06,0.52c0.09,0.71.18,1.44,0.3,2.16l0.06,0.34c0.1,0.63.22,1.28,0.34,1.92l0.08,0.44c0.14,0.72.3,1.43,0.46,2.13l0.09,0.38c0.15,0.63.31,1.26,0.48,1.87l0.1,0.37q0.29,1,.62,2.07l0.14,0.42c0.2,0.61.41,1.24,0.63,1.86l0.07,0.19c0.27,0.74.53,1.42,0.8,2.09l0.13,0.33c0.3,0.72.57,1.36,0.85,2l0,0.1c0.3,0.67.61,1.32,0.94,2l0.18,0.37c0.65,1.3,1.36,2.6,2.09,3.85l0.18,0.31c0.76,1.27,1.56,2.52,2.4,3.73l0.18,0.26c0.43,0.61.86,1.21,1.31,1.81s0.94,1.22,1.39,1.78l0.17,0.21c0.46,0.56.94,1.14,1.44,1.7l0.1,0.11q0.72,0.82,1.47,1.62l0.09,0.1,1.59,1.62,0.13,0.12q0.8,0.78,1.67,1.58t1.71,1.51l0.14,0.12c1.17,1,2.38,1.94,3.59,2.83l0.19,0.14,3.77,2.54,0.11,0.07q1,0.6,2,1.2t2,1.12l0.17,0.09c1.34,0.7,2.77,1.38,4.2,2l0.1,0c0.71,0.31,1.45.61,2.19,0.9a63.86,63.86,0,0,0,9.39,2.84,47,47,0,0,1-2.65-5.36,49.49,49.49,0,0,1-2.81-9.16c-1.33-6.36-2.68-16,.88-26.29A44.38,44.38,0,0,1,239,182c-10.83-2.92-17.59-11.82-19-14.46a5.87,5.87,0,0,1-.83-3.26,4.53,4.53,0,0,1,2.4-3.92C223.7,159.3,227.08,160.75,228.84,162.11Z" transform="translate(-55.04 -25.65)"/><path class="cls-1" d="M250,36.11a137.88,137.88,0,0,0-25.23,2.33h0a136.16,136.16,0,0,0-17.32,4.42l-0.25.08-2.57.87-0.31.11-2.56.93-0.22.08a136.42,136.42,0,0,0-15.87,7.18l-0.18.1q-1.16.62-2.3,1.26l-0.38.21L180.6,55l-0.43.25L178,56.51l-0.35.22q-1.12.7-2.23,1.41l-0.06,0q-4.82,3.13-9.35,6.64l-0.16.12q-1,.75-1.92,1.52l-0.49.4-1.76,1.46-0.59.5-1.68,1.45-0.61.55-1.64,1.49-0.56.53c-0.56.52-1.11,1-1.66,1.57l-0.38.37q-3,2.86-5.73,5.89l-0.06.07c-0.5.54-1,1.09-1.47,1.64l-0.59.67-1.31,1.52-0.7.83-1.22,1.48-0.74.92-1.16,1.48-0.74,1-1.12,1.48-0.72,1-1.09,1.51-0.68,1q-1.87,2.7-3.61,5.49l-0.71,1.14c-0.29.48-.57,1-0.86,1.44l-0.74,1.26L130.48,106l-0.73,1.31L129,108.68,128.26,110l-0.72,1.41-0.71,1.42-0.68,1.39c-0.24.5-.47,1-0.71,1.51s-0.41.89-.62,1.34-0.51,1.16-.76,1.74c-0.16.38-.33,0.76-0.49,1.14q-0.6,1.41-1.16,2.84c-0.15.37-.29,0.75-0.43,1.12-0.24.61-.47,1.23-0.7,1.85-0.16.43-.31,0.86-0.46,1.29s-0.41,1.14-.6,1.72-0.3.89-.45,1.34-0.37,1.13-.55,1.7l-0.42,1.36q-0.26.86-.51,1.73c-0.13.45-.26,0.9-0.39,1.35s-0.33,1.2-.49,1.8c-0.12.43-.23,0.87-0.34,1.31-0.16.65-.32,1.3-0.48,2-0.09.39-.19,0.78-0.28,1.17-0.19.84-.38,1.69-0.55,2.54,0,0.2-.09.41-0.13,0.61q-0.32,1.58-.61,3.16c-0.06.34-.11,0.68-0.17,1l-0.08.51v0c-0.09.55-.19,1.09-0.27,1.64s-0.12.84-.18,1.25l0,0.22,0,0.18c-0.08.53-.15,1.06-0.22,1.59s-0.11.89-.17,1.34v0.07l0,0.41c-0.06.49-.12,1-0.17,1.46s-0.09.87-.13,1.3c0,0.25,0,.5-0.07.76,0,0.42-.08.84-0.11,1.26s-0.06.71-.08,1.07-0.06.89-.09,1.34,0,0.65-.06,1l0,0.79c0,0.72-.06,1.43-0.09,2.15,0,0.2,0,.39,0,0.59s0,0.31,0,.46c0,1.33-.06,2.66-0.06,4q0,1.68,0,3.35h0c0,0.37,0,.73,0,1.09h0c0,0.75,0,1.5.09,2.24h0c0,0.43,0,.86.07,1.29h0c0,0.68.08,1.35,0.13,2h0c0,0.45.07,0.9,0.11,1.35h0q0.08,1,.17,2h0c0.09,0.95.2,1.89,0.31,2.84l0.05,0.47h0c0.09,0.73.18,1.45,0.28,2.17,0.05,0.39.11,0.77,0.16,1.16h0c0.22,1.5.45,3,.72,4.46h0c0.1,0.57.22,1.13,0.33,1.7s0.27,1.38.41,2.07h0c0.06,0.28.12,0.56,0.18,0.83q0.51,2.37,1.1,4.71l0,0.12h0c0.11,0.44.23,0.87,0.34,1.31h0l0.22,0.83q0.47,1.73,1,3.44l0.18,0.6h0l0.42,1.36h0q0.25,0.81.52,1.61,0.74,2.24,1.55,4.44h0l0.37,1c0.27,0.71.54,1.43,0.82,2.14q0.54,1.35,1.1,2.68h0c0.34,0.82.7,1.62,1.06,2.43l0.2,0.45h0c0.2,0.45.41,0.89,0.61,1.34h0l0.22,0.46q0.67,1.43,1.37,2.85l0.5,1h0l0.72,1.41h0l0.72,1.36h0q2,3.71,4.18,7.28l0.44,0.71h0c0.41,0.65.82,1.3,1.23,1.94s0.79,1.21,1.19,1.81q2.3,3.42,4.79,6.69h0l0.13,0.16q0.88,1.15,1.78,2.28h0l0.08,0.1q0.93,1.16,1.88,2.3h0l0.71,0.83h0q1.65,1.95,3.37,3.83h0l0,0q1.35,1.48,2.75,2.91l0.23,0.24q2.35,2.41,4.82,4.71h0l0.57,0.53h0q1.93,1.78,3.94,3.48h0l0.31,0.26q2.21,1.87,4.49,3.65l0.12,0.09h0q4.53,3.51,9.34,6.64h0l0,0q2.55,1.66,5.18,3.2h0l2.19,1.26h0l0.21,0.12q1.23,0.69,2.48,1.36h0l0.18,0.1h0a136.24,136.24,0,0,0,28.12,11.16l0.12,0q3.14,0.85,6.33,1.56l0.32,0.07q2.09,0.46,4.2.85h0l2,0.35a129.19,129.19,0,0,0,22.15,2H250a135.68,135.68,0,0,0,37.93-5.05,127.11,127.11,0,0,0,33.89-14.66c3.59-2.24,9.85-15.92,6.32-29.79-2.69-10.57-10.47-18.63-18.83-23.06-5.82-3.09-7.39-3.73-24.26-17.82-7.1-5.93-10.71-9.17-13-14.9a22.25,22.25,0,0,1-1.4-14.2,21.88,21.88,0,0,1,6.52-10.47c3.47-3.34,8.32-4.81,9.78-5.35,0.93-.35-0.93,4.4-2.79,6.75-4.68,5.91-11.69,7.07-11.64,7.22s13.73,0.93,23.74-10.94c3.86-4.58,8-10.59,8.38-15.83,0.07-1,9.62-3.92,8.7-4.19-4.74-1.4-10.73,3-9.16.7,3.49-5.1,9.53-18,14.9-21.18,3.62-2.12,7.51-1.36,9.54-1.16-7.81-5.79-13.12-5.31-15.13-4.66-4,1.3-9.31,5.06-12.22,7.9-0.63.61-4.13,4.87-7.1,5.14-0.08,0-1.86-.11-2.33-1.16-0.62-1.37,2.89-3.4,2-3.56-1.91-.35-7-0.05-12.74,3.1-5,2.75-4.68,3.94-9.54,7-3.47,2.17-9.49,5.94-16.53,5.35-5.48-.45-9-3.33-9.31-2.79s3.84,6,9.43,7.56c6.4,1.75,9.94,3,8.5,3.49-5.7,1.75-8.36,5.48-10,5.24-4.9-.73-4.9-0.73-12,0-4.36.45-6.87,1-10.13,0.23-4.16-1-6.38-3.66-6.52-3.49s5.74,8.61,15.6,11.17c5.07,1.32,9.31,1,8.61,1.86-1.66,1.94-9,7.45-12.8,18.39-3.14,9.08-1.93,17.62-.7,23.51a44.48,44.48,0,0,0,2.51,8.21c2.53,6,5.39,9.33,8.88,14.06a69.52,69.52,0,0,1-22.33-4.64q-1.21-.47-2.39-1l-0.09,0q-2.34-1-4.6-2.19l-0.13-.07q-2.23-1.17-4.36-2.49l-0.15-.09q-2.11-1.32-4.12-2.78l-0.16-.12q-2-1.46-3.88-3.06l-0.16-.13q-1.88-1.6-3.64-3.34l-0.14-.14q-0.87-.86-1.71-1.75l-0.1-.11q-0.81-.86-1.59-1.75l-0.11-.12q-0.8-.91-1.56-1.85l-0.17-.21q-0.73-.91-1.44-1.84l-0.06-.08q-0.72-1-1.41-1.95l-0.2-.29q-1.36-2-2.58-4l-0.21-.35q-1.2-2-2.26-4.17l-0.2-.4c-0.35-.71-0.69-1.42-1-2.14l0-.1c-0.31-.69-0.6-1.38-0.89-2.08l-0.18-.43q-0.44-1.09-.84-2.19l-0.1-.28q-0.36-1-.69-2l-0.14-.44q-0.35-1.11-.67-2.24l-0.11-.41q-0.27-1-.52-2l-0.1-.42q-0.27-1.14-.5-2.29l-0.09-.49q-0.2-1-.37-2.09l-0.06-.35q-0.18-1.17-.32-2.35c0-.18,0-0.36-0.06-0.55-0.08-.74-0.16-1.48-0.22-2.22,0-.08,0-0.15,0-0.23-0.06-.8-0.11-1.61-0.14-2.41q0-.29,0-0.58c0-.82,0-1.64,0-2.46s0-1.39,0-2.09c0-.21,0-0.41,0-0.62q0-.77.08-1.54c0-.2,0-0.41,0-0.61,0-.67.1-1.35,0.17-2,0-.12,0-0.25,0-0.37q0.09-.83.19-1.65c0-.24.06-0.48,0.1-0.72q0.09-.68.2-1.35c0-.23.07-0.47,0.11-0.7q0.16-.93.34-1.86c0-.23.1-0.47,0.15-0.7,0.09-.41.17-0.83,0.27-1.24l0.2-.86c0.09-.37.18-0.74,0.28-1.11s0.14-.55.21-0.82q0.23-.85.48-1.7c0.09-.29.18-0.58,0.27-0.87l0.32-1,0.31-.92,0.35-1c0.12-.33.24-0.66,0.36-1A70,70,0,0,1,213,114.1l0.65-.4,1.4-.84,0.73-.42,1.47-.81,0.63-.33q2.14-1.11,4.36-2.08l0.48-.2q0.89-.38,1.79-0.74c1.07-.42,2.16-0.82,3.25-1.19A103.89,103.89,0,0,1,333.53,282,137.14,137.14,0,0,0,250,36.11Zm39.24,111.75c1.24,0.21,1.05,2.41.58,3.72a2.86,2.86,0,0,1-2.44,2.09c-1.41.15-2-.61-3.72-1.16-3.2-1-5.75.61-5.94,0.12C277.34,151.65,286.3,147.36,289.24,147.86Z" transform="translate(-55.04 -25.65)"/><path class="cls-6" d="M250,36.11a137.88,137.88,0,0,0-25.23,2.33h0a136.16,136.16,0,0,0-17.32,4.42l-0.25.08-2.57.87-0.31.11-2.56.93-0.22.08a136.42,136.42,0,0,0-15.87,7.18l-0.18.1q-1.16.62-2.3,1.26l-0.38.21-2.19,1.26-0.43.25L178,56.51l-0.35.22q-1.12.7-2.23,1.41l-0.06,0q-4.82,3.13-9.35,6.64l-0.16.12q-1,.75-1.92,1.52l-0.49.4-1.76,1.46-0.59.5-1.68,1.45-0.61.55-1.64,1.49-0.56.53c-0.56.52-1.11,1-1.66,1.57l-0.38.37q-3,2.86-5.73,5.89l-0.06.07c-0.5.54-1,1.09-1.47,1.64L146.7,83l-1.31,1.52-0.7.83-1.22,1.48-0.74.92-1.16,1.48-0.74,1-1.12,1.48-0.72,1-1.09,1.51-0.68,1q-1.87,2.7-3.61,5.49l-0.71,1.14c-0.29.48-.57,1-0.86,1.44l-0.74,1.26L130.48,106l-0.73,1.31L129,108.68,128.26,110l-0.72,1.41-0.71,1.42-0.68,1.39c-0.24.5-.47,1-0.71,1.51s-0.41.89-.62,1.34-0.51,1.16-.76,1.74c-0.16.38-.33,0.76-0.49,1.14q-0.6,1.41-1.16,2.84c-0.15.37-.29,0.75-0.43,1.12-0.24.61-.47,1.23-0.7,1.85-0.16.43-.31,0.86-0.46,1.29s-0.41,1.14-.6,1.72-0.3.89-.45,1.34-0.37,1.13-.55,1.7l-0.42,1.36q-0.26.86-.51,1.73c-0.13.45-.26,0.9-0.39,1.35s-0.33,1.2-.49,1.8c-0.12.43-.23,0.87-0.34,1.31-0.16.65-.32,1.3-0.48,2-0.09.39-.19,0.78-0.28,1.17-0.19.84-.38,1.69-0.55,2.54,0,0.2-.09.41-0.13,0.61q-0.32,1.58-.61,3.16c-0.06.34-.11,0.68-0.17,1l-0.08.51v0c-0.09.55-.19,1.09-0.27,1.64s-0.12.84-.18,1.25l0,0.22,0,0.18c-0.08.53-.15,1.06-0.22,1.59s-0.11.89-.17,1.34v0.07l0,0.41c-0.06.49-.12,1-0.17,1.46s-0.09.87-.13,1.3c0,0.25,0,.5-0.07.76,0,0.42-.08.84-0.11,1.26s-0.06.71-.08,1.07-0.06.89-.09,1.34,0,0.65-.06,1l0,0.79c0,0.72-.06,1.43-0.09,2.15,0,0.2,0,.39,0,0.59s0,0.31,0,.46c0,1.33-.06,2.66-0.06,4q0,1.68,0,3.35h0c0,0.36,0,.73,0,1.09h0c0,0.75,0,1.5.09,2.24h0c0,0.43,0,.86.07,1.29h0c0,0.68.08,1.35,0.13,2h0c0,0.45.07,0.9,0.11,1.35h0q0.08,1,.17,2h0c0.09,0.95.2,1.89,0.31,2.84l0.05,0.47h0c0.09,0.73.18,1.45,0.28,2.17,0.05,0.39.11,0.77,0.16,1.16h0c0.22,1.5.45,3,.72,4.47h0c0.1,0.57.22,1.13,0.33,1.7s0.27,1.38.41,2.07h0c0.06,0.28.12,0.56,0.18,0.83q0.51,2.37,1.1,4.71l0,0.12h0c0.11,0.44.23,0.87,0.34,1.31h0l0.22,0.83q0.47,1.73,1,3.44l0.18,0.6h0l0.42,1.36h0q0.26,0.81.52,1.61,0.74,2.24,1.55,4.44h0l0.37,1c0.27,0.71.54,1.43,0.82,2.14q0.54,1.35,1.1,2.68h0c0.34,0.82.7,1.62,1.06,2.43l0.2,0.45h0c0.2,0.45.41,0.89,0.61,1.34h0l0.22,0.46q0.67,1.43,1.37,2.85l0.5,1h0l0.72,1.41h0l0.72,1.36h0q2,3.71,4.18,7.28l0.44,0.71h0c0.41,0.65.82,1.3,1.23,1.94s0.79,1.21,1.19,1.81q2.3,3.42,4.79,6.69h0l0.13,0.16q0.88,1.15,1.78,2.28h0l0.08,0.1q0.93,1.16,1.88,2.3h0l0.71,0.83h0q1.65,1.95,3.37,3.83h0l0,0q1.35,1.48,2.75,2.91l0.23,0.24q2.35,2.41,4.82,4.71h0l0.57,0.53h0q1.93,1.78,3.94,3.48h0l0.31,0.26q2.21,1.87,4.49,3.65l0.12,0.09h0q4.53,3.51,9.34,6.64h0l0,0q2.55,1.66,5.18,3.2h0l2.19,1.26h0l0.21,0.12q1.23,0.69,2.48,1.36h0l0.18,0.1h0a136.24,136.24,0,0,0,28.12,11.16l0.12,0q3.14,0.85,6.33,1.56l0.32,0.07q2.09,0.46,4.2.85h0l2,0.35a129.19,129.19,0,0,0,22.15,2H250a33.67,33.67,0,0,0,0-67.35c-1,0-1.94.05-2.9,0.13V243a69.52,69.52,0,0,1-22.33-4.64q-1.21-.47-2.39-1l-0.09,0q-2.34-1-4.6-2.19l-0.13-.07q-2.23-1.17-4.36-2.49l-0.15-.09q-2.11-1.32-4.12-2.78l-0.16-.12q-2-1.46-3.88-3.06l-0.16-.13q-1.88-1.6-3.64-3.34l-0.14-.14q-0.87-.86-1.71-1.75l-0.1-.11q-0.81-.86-1.59-1.75l-0.11-.12q-0.8-.91-1.56-1.85l-0.17-.21q-0.73-.91-1.44-1.84l-0.06-.08q-0.72-1-1.41-1.95l-0.2-.29q-1.36-2-2.58-4l-0.21-.35q-1.2-2-2.26-4.17l-0.2-.4c-0.35-.71-0.69-1.42-1-2.14l0-.1c-0.31-.69-0.6-1.38-0.89-2.08l-0.18-.43q-0.44-1.09-.84-2.19l-0.1-.28q-0.36-1-.69-2l-0.14-.44q-0.35-1.11-.67-2.24l-0.11-.41q-0.27-1-.52-2l-0.1-.42q-0.27-1.14-.5-2.29l-0.09-.49q-0.2-1-.37-2.09l-0.06-.35q-0.18-1.17-.32-2.35c0-.18,0-0.36-0.06-0.55-0.08-.74-0.16-1.48-0.22-2.22,0-.08,0-0.15,0-0.23-0.06-.8-0.11-1.61-0.14-2.41q0-.29,0-0.58c0-.82,0-1.64,0-2.46s0-1.39,0-2.09c0-.21,0-0.41,0-0.62q0-.77.08-1.54c0-.2,0-0.41,0-0.61,0-.67.1-1.35,0.17-2,0-.12,0-0.25,0-0.37q0.09-.83.19-1.65c0-.24.06-0.48,0.1-0.72q0.09-.68.2-1.35c0-.23.07-0.47,0.11-0.7q0.16-.93.34-1.86c0-.23.1-0.47,0.15-0.7,0.09-.41.17-0.83,0.27-1.24l0.2-.86c0.09-.37.18-0.74,0.28-1.11s0.14-.55.21-0.82q0.23-.85.48-1.7c0.09-.29.18-0.58,0.27-0.87l0.32-1,0.31-.92,0.35-1c0.12-.33.24-0.66,0.36-1A70,70,0,0,1,213,114.1l0.65-.4,1.4-.84,0.73-.42,1.47-.81,0.63-.33q2.14-1.11,4.36-2.08l0.48-.2q0.89-.38,1.79-0.74c1.07-.42,2.16-0.82,3.25-1.19A103.89,103.89,0,0,1,333.53,282,137.14,137.14,0,0,0,250,36.11Z" transform="translate(-55.04 -25.65)"/><path class="cls-7" d="M250,243.05c-1,0-1.94.05-2.9,0.13V243a69.52,69.52,0,0,1-22.33-4.64q-1.21-.47-2.39-1l-0.09,0q-2.34-1-4.6-2.19l-0.13-.07q-2.23-1.17-4.36-2.49l-0.15-.09q-2.11-1.32-4.12-2.78l-0.16-.12q-2-1.46-3.88-3.06l-0.16-.13q-1.88-1.6-3.64-3.34l-0.14-.14q-0.87-.86-1.71-1.75l-0.1-.11q-0.81-.86-1.59-1.75l-0.11-.12q-0.8-.91-1.56-1.85l-0.17-.21q-0.73-.91-1.44-1.84l-0.06-.08q-0.72-1-1.41-1.95l-0.2-.29q-1.36-2-2.58-4l-0.21-.35q-1.2-2-2.26-4.17l-0.2-.4c-0.35-.71-0.69-1.42-1-2.14l0-.1c-0.31-.69-0.6-1.38-0.89-2.08l-0.18-.43q-0.44-1.09-.84-2.19l-0.1-.28q-0.36-1-.69-2l-0.14-.44q-0.35-1.11-.67-2.24l-0.11-.41q-0.27-1-.52-2l-0.1-.42q-0.27-1.14-.5-2.29l-0.09-.49q-0.2-1-.37-2.09l-0.06-.35q-0.18-1.17-.32-2.35c0-.18,0-0.36-0.06-0.55-0.08-.74-0.16-1.48-0.22-2.22,0-.08,0-0.15,0-0.23-0.06-.8-0.11-1.61-0.14-2.41q0-.29,0-0.58c0-.82,0-1.64,0-2.46s0-1.39,0-2.09c0-.21,0-0.41,0-0.62q0-.77.08-1.54c0-.2,0-0.41,0-0.61,0-.67.1-1.35,0.17-2,0-.12,0-0.25,0-0.37q0.09-.83.19-1.65c0-.24.06-0.48,0.1-0.72q0.09-.68.2-1.35c0-.23.07-0.47,0.11-0.7q0.16-.93.34-1.86c0-.23.1-0.47,0.15-0.7,0.09-.41.17-0.83,0.27-1.24l0.2-.86c0.09-.37.18-0.74,0.28-1.11s0.14-.55.21-0.82q0.23-.85.48-1.7c0.09-.29.18-0.58,0.27-0.87l0.32-1,0.31-.92,0.35-1c0.12-.33.24-0.66,0.36-1A70,70,0,0,1,213,114.1l0.65-.4,1.4-.84,0.73-.42,1.47-.81,0.63-.33q2.14-1.11,4.36-2.08l0.48-.2q0.89-.38,1.79-0.74c1.07-.42,2.16-0.82,3.25-1.19a103.63,103.63,0,0,1,37-6.79c3.25,0,6.47.16,9.65,0.45,22.44,1.6,48.83,9.91,74.52,24.75a203.26,203.26,0,0,1,36.65,26.87A137.25,137.25,0,0,0,224.76,38.44h0a136.16,136.16,0,0,0-17.32,4.42l-0.25.08-2.57.87-0.31.11-2.56.93-0.22.08a136.42,136.42,0,0,0-15.87,7.18l-0.18.1q-1.16.62-2.3,1.26l-0.38.21-2.19,1.26-0.43.25L178,56.51l-0.35.22q-1.12.7-2.23,1.41l-0.06,0q-4.82,3.13-9.35,6.64l-0.16.12q-1,.75-1.92,1.52l-0.49.4-1.76,1.46-0.59.5-1.68,1.45-0.61.55-1.64,1.49-0.56.53c-0.56.52-1.11,1-1.66,1.57l-0.38.37q-3,2.86-5.73,5.89l-0.06.07c-0.5.54-1,1.09-1.47,1.64L146.7,83l-1.31,1.52-0.7.83-1.22,1.48-0.74.92-1.16,1.48-0.74,1-1.12,1.48-0.72,1-1.09,1.51-0.68,1q-1.87,2.7-3.61,5.49l-0.71,1.14c-0.29.48-.57,1-0.86,1.44l-0.74,1.26L130.48,106l-0.73,1.31L129,108.68,128.26,110l-0.72,1.41-0.71,1.42-0.68,1.39c-0.24.5-.47,1-0.71,1.51s-0.41.89-.62,1.34-0.51,1.16-.76,1.74c-0.16.38-.33,0.76-0.49,1.14q-0.6,1.41-1.16,2.84c-0.15.37-.29,0.75-0.43,1.12-0.24.61-.47,1.23-0.7,1.85-0.16.43-.31,0.86-0.46,1.29s-0.41,1.14-.6,1.72-0.3.89-.45,1.34-0.37,1.13-.55,1.7l-0.42,1.36q-0.26.86-.51,1.73c-0.13.45-.26,0.9-0.39,1.35s-0.33,1.2-.49,1.8c-0.12.43-.23,0.87-0.34,1.31-0.16.65-.32,1.3-0.48,2-0.09.39-.19,0.78-0.28,1.17-0.19.84-.38,1.69-0.55,2.54,0,0.2-.09.41-0.13,0.61q-0.32,1.58-.61,3.16c-0.06.34-.11,0.68-0.17,1l-0.08.51v0c-0.09.55-.19,1.09-0.27,1.64s-0.12.84-.18,1.25l0,0.22,0,0.18c-0.08.53-.15,1.06-0.22,1.59s-0.11.89-.17,1.34v0.07l0,0.41c-0.06.49-.12,1-0.17,1.46s-0.09.87-.13,1.3c0,0.25,0,.5-0.07.76,0,0.42-.08.84-0.11,1.26s-0.06.71-.08,1.07-0.06.89-.09,1.34,0,0.65-.06,1l0,0.79c0,0.72-.06,1.43-0.09,2.15,0,0.2,0,.39,0,0.59s0,0.31,0,.46c0,1.33-.06,2.66-0.06,4q0,1.68,0,3.35h0c0,0.36,0,.73,0,1.09h0c0,0.75,0,1.5.09,2.24h0c0,0.43,0,.86.07,1.29h0c0,0.68.08,1.35,0.13,2h0c0,0.45.07,0.9,0.11,1.35h0q0.08,1,.17,2h0c0.09,0.95.2,1.89,0.31,2.84l0.05,0.47h0c0.09,0.73.18,1.45,0.28,2.17,0.05,0.39.11,0.77,0.16,1.16h0c0.22,1.5.45,3,.72,4.46h0c0.1,0.57.22,1.13,0.33,1.7s0.27,1.38.41,2.07h0c0.06,0.28.12,0.56,0.18,0.83q0.51,2.37,1.1,4.71l0,0.12h0c0.11,0.44.23,0.87,0.34,1.31h0l0.22,0.83q0.47,1.73,1,3.44l0.18,0.6h0l0.42,1.36h0q0.25,0.81.52,1.61,0.74,2.24,1.55,4.44h0l0.37,1c0.27,0.71.54,1.43,0.82,2.14q0.54,1.35,1.1,2.68h0c0.34,0.82.7,1.62,1.06,2.43l0.2,0.45h0c0.2,0.45.41,0.89,0.61,1.34h0l0.22,0.47q0.67,1.43,1.37,2.85l0.5,1h0l0.72,1.41h0l0.72,1.36h0q2,3.71,4.18,7.28l0.44,0.71h0c0.41,0.65.82,1.3,1.23,1.94s0.79,1.21,1.19,1.81q2.3,3.42,4.79,6.69h0l0.13,0.16q0.88,1.15,1.78,2.28h0l0.08,0.1q0.93,1.16,1.88,2.3h0l0.71,0.83h0q1.65,1.95,3.37,3.83h0l0,0q1.35,1.48,2.75,2.91l0.23,0.24q2.35,2.41,4.82,4.71h0l0.57,0.53h0q1.93,1.78,3.94,3.48h0l0.31,0.26q2.21,1.87,4.49,3.65l0.12,0.09h0q4.53,3.51,9.34,6.64h0l0,0q2.55,1.66,5.18,3.2h0l2.19,1.26h0l0.21,0.12q1.23,0.69,2.48,1.36h0l0.18,0.1h0a136.24,136.24,0,0,0,28.12,11.16l0.12,0q3.14,0.85,6.33,1.56l0.32,0.07q2.09,0.46,4.2.85h0l2,0.35a129.19,129.19,0,0,0,22.15,2H250A33.67,33.67,0,0,0,250,243.05Z" transform="translate(-55.04 -25.65)"/><path class="cls-8" d="M250,243.05c-1,0-1.94.05-2.9,0.13V243a69.52,69.52,0,0,1-22.33-4.64q-1.21-.47-2.39-1l-0.09,0q-2.34-1-4.6-2.19l-0.13-.07q-2.23-1.17-4.36-2.49l-0.15-.09q-2.11-1.32-4.12-2.78l-0.16-.12q-2-1.46-3.88-3.06l-0.16-.13q-1.88-1.6-3.64-3.34l-0.14-.14q-0.87-.86-1.71-1.75l-0.1-.11q-0.81-.86-1.59-1.75l-0.11-.12q-0.8-.91-1.56-1.85l-0.17-.21q-0.73-.91-1.44-1.84l-0.06-.08q-0.72-1-1.41-1.95l-0.2-.29q-1.36-2-2.58-4l-0.21-.35q-1.2-2-2.26-4.17l-0.2-.4c-0.35-.71-0.69-1.42-1-2.14l0-.1c-0.31-.69-0.6-1.38-0.89-2.08l-0.18-.43q-0.44-1.09-.84-2.19l-0.1-.28q-0.36-1-.69-2l-0.14-.44q-0.35-1.11-.67-2.24l-0.11-.41q-0.27-1-.52-2l-0.1-.42q-0.27-1.14-.5-2.29l-0.09-.49q-0.2-1-.37-2.09l-0.06-.35q-0.18-1.17-.32-2.35c0-.18,0-0.36-0.06-0.55-0.08-.74-0.16-1.48-0.22-2.22,0-.08,0-0.15,0-0.23-0.06-.8-0.11-1.61-0.14-2.41q0-.29,0-0.58c0-.82,0-1.64,0-2.46s0-1.39,0-2.09c0-.21,0-0.41,0-0.62q0-.77.08-1.54c0-.2,0-0.41,0-0.61,0-.67.1-1.35,0.17-2,0-.12,0-0.25,0-0.37q0.09-.83.19-1.65c0-.24.06-0.48,0.1-0.72q0.09-.68.2-1.35c0-.23.07-0.47,0.11-0.7q0.16-.93.34-1.86c0-.23.1-0.47,0.15-0.7,0.09-.41.17-0.83,0.27-1.24l0.2-.86c0.09-.37.18-0.74,0.28-1.11s0.14-.55.21-0.82q0.23-.85.48-1.7c0.09-.29.18-0.58,0.27-0.87l0.32-1,0.31-.92,0.35-1c0.12-.33.24-0.66,0.36-1a70,70,0,0,1,21.13-29.35c16-16.15,40-30.87,68.62-40.56,22.28-7.55,44.19-11,63.43-10.69A137.32,137.32,0,0,0,224.76,38.44h0a136.16,136.16,0,0,0-17.32,4.42l-0.25.08-2.57.87-0.31.11-2.56.93-0.22.08a136.42,136.42,0,0,0-15.87,7.18l-0.18.1q-1.16.62-2.3,1.26l-0.38.21-2.19,1.26-0.43.25L178,56.51l-0.35.22q-1.12.7-2.23,1.41l-0.06,0q-4.82,3.13-9.35,6.64l-0.16.12q-1,.75-1.92,1.52l-0.49.4-1.76,1.46-0.59.5-1.68,1.45-0.61.55-1.64,1.49-0.56.53c-0.56.52-1.11,1-1.66,1.57l-0.38.37q-3,2.86-5.73,5.89l-0.06.07c-0.5.54-1,1.09-1.47,1.64L146.7,83l-1.31,1.52-0.7.83-1.22,1.48-0.74.92-1.16,1.48-0.74,1-1.12,1.48-0.72,1-1.09,1.51-0.68,1q-1.87,2.7-3.61,5.49l-0.71,1.14c-0.29.48-.57,1-0.86,1.44l-0.74,1.26L130.48,106l-0.73,1.31L129,108.68,128.26,110l-0.72,1.41-0.71,1.42-0.68,1.39c-0.24.5-.47,1-0.71,1.51s-0.41.89-.62,1.34-0.51,1.16-.76,1.74c-0.16.38-.33,0.76-0.49,1.14q-0.6,1.41-1.16,2.84c-0.15.37-.29,0.75-0.43,1.12-0.24.61-.47,1.23-0.7,1.85-0.16.43-.31,0.86-0.46,1.29s-0.41,1.14-.6,1.72-0.3.89-.45,1.34-0.37,1.13-.55,1.7l-0.42,1.36q-0.26.86-.51,1.73c-0.13.45-.26,0.9-0.39,1.35s-0.33,1.2-.49,1.8c-0.12.43-.23,0.87-0.34,1.31-0.16.65-.32,1.3-0.48,2-0.09.39-.19,0.78-0.28,1.17-0.19.84-.38,1.69-0.55,2.54,0,0.2-.09.41-0.13,0.61q-0.32,1.58-.61,3.16c-0.06.34-.11,0.68-0.17,1l-0.08.51v0c-0.09.55-.19,1.09-0.27,1.64s-0.12.84-.18,1.25l0,0.22,0,0.18c-0.08.53-.15,1.06-0.22,1.59s-0.11.89-.17,1.34v0.07l0,0.41c-0.06.49-.12,1-0.17,1.46s-0.09.87-.13,1.3c0,0.25,0,.5-0.07.76,0,0.42-.08.84-0.11,1.26s-0.06.71-.08,1.07-0.06.89-.09,1.34,0,0.65-.06,1l0,0.79c0,0.72-.06,1.43-0.09,2.15,0,0.2,0,.39,0,0.59s0,0.31,0,.46c0,1.33-.06,2.66-0.06,4q0,1.68,0,3.35h0c0,0.36,0,.73,0,1.09h0c0,0.75,0,1.5.09,2.24h0c0,0.43,0,.86.07,1.29h0c0,0.68.08,1.35,0.13,2h0c0,0.45.07,0.9,0.11,1.35h0q0.08,1,.17,2h0c0.09,0.95.2,1.89,0.31,2.84l0.05,0.47h0c0.09,0.73.18,1.45,0.28,2.17,0.05,0.39.11,0.77,0.16,1.16h0c0.22,1.5.45,3,.72,4.46h0c0.1,0.57.22,1.13,0.33,1.7s0.27,1.38.41,2.07h0c0.06,0.28.12,0.56,0.18,0.83q0.51,2.37,1.1,4.71l0,0.12h0c0.11,0.44.23,0.87,0.34,1.31h0l0.22,0.83q0.47,1.73,1,3.44l0.18,0.6h0l0.42,1.36h0q0.25,0.81.52,1.61,0.74,2.24,1.55,4.44h0l0.37,1c0.27,0.71.54,1.43,0.82,2.14q0.54,1.35,1.1,2.68h0c0.34,0.82.7,1.62,1.06,2.43l0.2,0.45h0c0.2,0.45.41,0.89,0.61,1.34h0l0.22,0.47q0.67,1.43,1.37,2.85l0.5,1h0l0.72,1.41h0l0.72,1.36h0q2,3.71,4.18,7.28l0.44,0.71h0c0.41,0.65.82,1.3,1.23,1.94s0.79,1.21,1.19,1.81q2.3,3.42,4.79,6.69h0l0.13,0.16q0.88,1.15,1.78,2.28h0l0.08,0.1q0.93,1.16,1.88,2.3h0l0.71,0.83h0q1.65,1.95,3.37,3.83h0l0,0q1.35,1.48,2.75,2.91l0.23,0.24q2.35,2.41,4.82,4.71h0l0.57,0.53h0q1.93,1.78,3.94,3.48h0l0.31,0.26q2.21,1.87,4.49,3.65l0.12,0.09h0q4.53,3.51,9.34,6.64h0l0,0q2.55,1.66,5.18,3.2h0l2.19,1.26h0l0.21,0.12q1.23,0.69,2.48,1.36h0l0.18,0.1h0a136.24,136.24,0,0,0,28.12,11.16l0.12,0q3.14,0.85,6.33,1.56l0.32,0.07q2.09,0.46,4.2.85h0l2,0.35a129.19,129.19,0,0,0,22.15,2H250A33.67,33.67,0,0,0,250,243.05Z" transform="translate(-55.04 -25.65)"/><path class="cls-9" d="M250,243.05c-1,0-1.94.05-2.9,0.13V243a69.52,69.52,0,0,1-22.33-4.64q-1.21-.47-2.39-1l-0.09,0q-2.34-1-4.6-2.19l-0.13-.07q-2.23-1.17-4.36-2.49l-0.15-.09q-2.11-1.32-4.12-2.78l-0.16-.12q-2-1.46-3.88-3.06l-0.16-.13q-1.88-1.6-3.64-3.34l-0.14-.14q-0.87-.86-1.71-1.75l-0.1-.11q-0.81-.86-1.59-1.75l-0.11-.12q-0.8-.91-1.56-1.85l-0.17-.21q-0.73-.91-1.44-1.84l-0.06-.08q-0.72-1-1.41-1.95l-0.2-.29q-1.36-2-2.58-4l-0.21-.35q-1.2-2-2.26-4.17l-0.2-.4c-0.35-.71-0.69-1.42-1-2.14l0-.1c-0.31-.69-0.6-1.38-0.89-2.08l-0.18-.43q-0.44-1.09-.84-2.19l-0.1-.28q-0.36-1-.69-2l-0.14-.44q-0.35-1.11-.67-2.24l-0.11-.41q-0.27-1-.52-2l-0.1-.42q-0.27-1.14-.5-2.29l-0.09-.49q-0.2-1-.37-2.09l-0.06-.35q-0.18-1.17-.32-2.35c0-.18,0-0.36-0.06-0.55-0.08-.74-0.16-1.48-0.22-2.22,0-.08,0-0.15,0-0.23s0-.37,0-0.56c-3.94-22.8-1.63-51.67,7.87-81.31,7.08-22.09,17.16-41.5,28.64-56.69q-4.79,1.19-9.45,2.71l-0.25.08-2.57.87-0.31.11-2.56.93-0.22.08a136.42,136.42,0,0,0-15.87,7.18l-0.18.1q-1.16.62-2.3,1.26l-0.38.21-2.19,1.26-0.43.25L178,56.51l-0.35.22q-1.12.7-2.23,1.41l-0.06,0q-4.82,3.13-9.35,6.64l-0.16.12q-1,.75-1.92,1.52l-0.49.4-1.76,1.46-0.59.5-1.68,1.45-0.61.55-1.64,1.49-0.56.53c-0.56.52-1.11,1-1.66,1.57l-0.38.37q-3,2.86-5.73,5.89l-0.06.07c-0.5.54-1,1.09-1.47,1.64L146.7,83l-1.31,1.52-0.7.83-1.22,1.48-0.74.92-1.16,1.48-0.74,1-1.12,1.48-0.72,1-1.09,1.51-0.68,1q-1.87,2.7-3.61,5.49l-0.71,1.14c-0.29.48-.57,1-0.86,1.44l-0.74,1.26L130.48,106l-0.73,1.31L129,108.68,128.26,110l-0.72,1.41-0.71,1.42-0.68,1.39c-0.24.5-.47,1-0.71,1.51s-0.41.89-.62,1.34-0.51,1.16-.76,1.74c-0.16.38-.33,0.76-0.49,1.14q-0.6,1.41-1.16,2.84c-0.15.37-.29,0.75-0.43,1.12-0.24.61-.47,1.23-0.7,1.85-0.16.43-.31,0.86-0.46,1.29s-0.41,1.14-.6,1.72-0.3.89-.45,1.34-0.37,1.13-.55,1.7l-0.42,1.36q-0.26.86-.51,1.73c-0.13.45-.26,0.9-0.39,1.35s-0.33,1.2-.49,1.8c-0.12.43-.23,0.87-0.34,1.31-0.16.65-.32,1.3-0.48,2-0.09.39-.19,0.78-0.28,1.17-0.19.84-.38,1.69-0.55,2.54,0,0.2-.09.41-0.13,0.61q-0.32,1.58-.61,3.16c-0.06.34-.11,0.68-0.17,1l-0.08.51v0c-0.09.55-.19,1.09-0.27,1.64s-0.12.84-.18,1.25l0,0.22,0,0.18c-0.08.53-.15,1.06-0.22,1.59s-0.11.89-.17,1.34v0.07l0,0.41c-0.06.49-.12,1-0.17,1.46s-0.09.87-.13,1.3c0,0.25,0,.5-0.07.76,0,0.42-.08.84-0.11,1.26s-0.06.71-.08,1.07-0.06.89-.09,1.34,0,0.65-.06,1l0,0.79c0,0.72-.06,1.43-0.09,2.15,0,0.2,0,.39,0,0.59s0,0.31,0,.46c0,1.33-.06,2.66-0.06,4q0,1.68,0,3.35h0c0,0.36,0,.73,0,1.09h0c0,0.75,0,1.5.09,2.24h0c0,0.43,0,.86.07,1.29h0c0,0.68.08,1.35,0.13,2h0c0,0.45.07,0.9,0.11,1.35h0q0.08,1,.17,2h0c0.09,0.95.2,1.89,0.31,2.84l0.05,0.47h0c0.09,0.73.18,1.45,0.28,2.17,0.05,0.39.11,0.77,0.16,1.16h0c0.22,1.5.45,3,.72,4.46h0c0.1,0.57.22,1.13,0.33,1.7s0.27,1.38.41,2.07h0c0.06,0.28.12,0.56,0.18,0.83q0.51,2.37,1.1,4.71l0,0.12h0c0.11,0.44.23,0.87,0.34,1.31h0l0.22,0.83q0.47,1.73,1,3.44l0.18,0.6h0l0.42,1.36h0q0.25,0.81.52,1.61,0.74,2.24,1.55,4.44h0l0.37,1c0.27,0.71.54,1.43,0.82,2.14q0.54,1.35,1.1,2.68h0c0.34,0.82.7,1.62,1.06,2.43l0.2,0.45h0c0.2,0.45.41,0.89,0.61,1.34h0l0.22,0.47q0.67,1.43,1.37,2.85l0.5,1h0l0.72,1.41h0l0.72,1.36h0q2,3.71,4.18,7.28l0.44,0.71h0c0.41,0.65.82,1.3,1.23,1.94s0.79,1.21,1.19,1.81q2.3,3.42,4.79,6.69h0l0.13,0.16q0.88,1.15,1.78,2.28h0l0.08,0.1q0.93,1.16,1.88,2.3h0l0.71,0.83h0q1.65,1.95,3.37,3.83h0l0,0q1.35,1.48,2.75,2.91l0.23,0.24q2.35,2.41,4.82,4.71h0l0.57,0.53h0q1.93,1.78,3.94,3.48h0l0.31,0.26q2.21,1.87,4.49,3.65l0.12,0.09h0q4.53,3.51,9.34,6.64h0l0,0q2.55,1.66,5.18,3.2h0l2.19,1.26h0l0.21,0.12q1.23,0.69,2.48,1.36h0l0.18,0.1h0a136.24,136.24,0,0,0,28.12,11.16l0.12,0q3.14,0.85,6.33,1.56l0.32,0.07q2.09,0.46,4.2.85h0l2,0.35a129.19,129.19,0,0,0,22.15,2H250A33.67,33.67,0,0,0,250,243.05Z" transform="translate(-55.04 -25.65)"/><path class="cls-10" d="M251.54,243.09q-1.72.07-3.5,0l-0.94.06v-0.09c-26.92-1-62.23-20.08-91.85-52.24-16.85-18.3-29.33-38.08-36.73-56.69l-0.23.77c-0.13.45-.26,0.9-0.39,1.35s-0.33,1.2-.49,1.8c-0.12.43-.23,0.87-0.34,1.31-0.16.65-.32,1.3-0.48,2-0.09.39-.19,0.78-0.28,1.17-0.19.84-.38,1.69-0.55,2.54,0,0.2-.09.41-0.13,0.61q-0.32,1.58-.61,3.16c-0.06.34-.11,0.68-0.17,1l-0.08.51v0c-0.09.55-.19,1.09-0.27,1.64s-0.12.84-.18,1.25l0,0.22,0,0.18c-0.08.53-.15,1.06-0.22,1.59s-0.11.89-.17,1.34v0.07l0,0.41c-0.06.49-.12,1-0.17,1.46s-0.09.87-.13,1.3c0,0.25,0,.5-0.07.76,0,0.42-.08.84-0.11,1.26s-0.06.71-.08,1.07-0.06.89-.09,1.34,0,0.65-.06,1l0,0.79c0,0.72-.06,1.43-0.09,2.15,0,0.2,0,.39,0,0.59s0,0.31,0,.46c0,1.33-.06,2.66-0.06,4q0,1.68,0,3.35h0c0,0.36,0,.73,0,1.09h0c0,0.75,0,1.5.09,2.24h0c0,0.43,0,.86.07,1.29h0c0,0.68.08,1.35,0.13,2h0c0,0.45.07,0.9,0.11,1.35h0q0.08,1,.17,2h0c0.09,0.95.2,1.89,0.31,2.84l0.05,0.47h0c0.09,0.73.18,1.45,0.28,2.17,0.05,0.39.11,0.77,0.16,1.16h0c0.22,1.5.45,3,.72,4.46h0c0.1,0.57.22,1.13,0.33,1.7s0.27,1.38.41,2.07h0c0.06,0.28.12,0.56,0.18,0.83q0.51,2.37,1.1,4.71l0,0.12h0c0.11,0.44.23,0.87,0.34,1.31h0l0.22,0.83q0.47,1.73,1,3.44l0.18,0.6h0l0.42,1.36h0q0.25,0.81.52,1.61,0.74,2.24,1.55,4.44h0l0.37,1c0.27,0.71.54,1.43,0.82,2.14q0.54,1.35,1.1,2.68h0c0.34,0.82.7,1.62,1.06,2.43l0.2,0.45h0c0.2,0.45.41,0.89,0.61,1.34h0l0.22,0.47q0.67,1.43,1.37,2.85l0.5,1h0l0.72,1.41h0l0.72,1.36h0q2,3.71,4.18,7.28l0.44,0.71h0c0.41,0.65.82,1.3,1.23,1.94s0.79,1.21,1.19,1.81q2.3,3.42,4.79,6.69h0l0.13,0.16q0.88,1.15,1.78,2.28h0l0.08,0.1q0.93,1.16,1.88,2.3h0l0.71,0.83h0q1.65,1.95,3.37,3.83h0l0,0q1.35,1.48,2.75,2.91l0.23,0.24q2.35,2.41,4.82,4.71h0l0.57,0.53h0q1.93,1.78,3.94,3.48h0l0.31,0.26q2.21,1.87,4.49,3.65l0.12,0.09h0q4.53,3.51,9.34,6.64h0l0,0q2.55,1.66,5.18,3.2h0l2.19,1.26h0l0.21,0.12q1.23,0.69,2.48,1.36h0l0.18,0.1h0a136.24,136.24,0,0,0,28.12,11.16l0.12,0q3.14,0.85,6.33,1.56l0.32,0.07q2.09,0.46,4.2.85h0l2,0.35a129.19,129.19,0,0,0,22.15,2H250A33.67,33.67,0,0,0,251.54,243.09Z" transform="translate(-55.04 -25.65)"/><path class="cls-11" d="M254.5,178.47c-4.25,4.18-6,7.14-7.42,11.81a31,31,0,0,0-.91,13.93c1.27,7.72,6.39,14.85,6.36,13.78-0.07-2.51-1.66-5.8-.45-14.23A31.8,31.8,0,0,1,256,192.09c4.81-8.22,6.66-9.08,10.6-12.41Z" transform="translate(-55.04 -25.65)"/><path class="cls-2" d="M388.48,419c5.39,0.35,10.43-1.82,13-5.79a14,14,0,0,0,2.09-7.19,11.61,11.61,0,0,0-2.35-7.17,12,12,0,0,0,1.47-6A11.8,11.8,0,0,0,396,382.1h22.8c4.14,0,6.71-2.57,6.71-6.71v-39.2H435c4.14,0,6.71-2.57,6.71-6.71v-7.37a6.22,6.22,0,0,0-6.71-6.71l-369.2.09a6.46,6.46,0,0,0-5,2,6.38,6.38,0,0,0-1.58,4.7V375.4c0,4.14,2.54,6.71,6.62,6.71H98.68a5.5,5.5,0,0,0-1.36,3.76v27.67a5.23,5.23,0,0,0,5.47,5.47H388.48Z" transform="translate(-55.04 -25.65)"/><path class="cls-3" d="M109.85,378H99.37c-2.13,0-3.2-.8-4.44-2.66L85.34,361c-0.8-1.07-1-2-1-4.53v-7.1c0-1.6.53-2.58,2.58-2.58h1.78c4.35,0,8.44-3,8.44-7.19,0-4.62-3.55-7.55-8.17-7.55H77.17V375.4c0,2-1,2.58-2.58,2.58H65.81c-1.6,0-2.49-.53-2.49-2.58V322.21c0-1.6.44-2.58,2.49-2.58H88.18c9.68,0,13.94,2,17.67,5.68,3.29,3.2,5.15,8.26,5.15,13.94a19.12,19.12,0,0,1-12.34,17.67l12.52,18.2C112,376.37,111.54,378,109.85,378Z" transform="translate(-55.04 -25.65)"/><path class="cls-3" d="M167.39,368.11v7.28c0,1.6-.53,2.58-2.58,2.58H125c-2,0-2.58-1-2.58-2.58V322.12c0-1.6.53-2.58,2.58-2.58H163.3c2,0,2.58,1,2.58,2.58v7.37c0,1.6-.53,2.58-2.58,2.58H136.49v9.68h23.8c2,0,2.58,1,2.58,2.58v6.93c0,1.6-.53,2.57-2.58,2.57h-23.8v11.72h28.32C166.85,365.54,167.39,366.52,167.39,368.11Z" transform="translate(-55.04 -25.65)"/><path class="cls-3" d="M221.28,360.16c0,12-9.5,17.81-22.55,17.81-10.6,0-22.81-6.11-22.81-18,0-2,.51-2.37,2.46-2.37h8.22c2,0,2.88.25,3.05,2.37a5.83,5.83,0,0,0,1.61,3.48c1.7,2,5.17,2.8,8.31,2.8,4.58,0,8.31-1,8.31-5.77s-7.55-4.83-14.75-7.12c-8.56-2.71-16.45-6.1-16.45-16.87,0-11,10-16.45,20.6-16.87,10.77,0,22.55,4.92,22.55,16.11,0,2-.51,2.37-2.46,2.37h-8.31c-1.61,0-1.86-1.19-2.29-2.29a7,7,0,0,0-1.78-2.54c-1.61-1.53-4.66-2.29-7.21-2.29-2.8,0-7.46,1.1-7.46,4.92,0,5.17,12.46,7,15.86,8.39C212.29,346.17,221.28,348.63,221.28,360.16Z" transform="translate(-55.04 -25.65)"/><path class="cls-3" d="M274.82,322.12v7.37c0,1.6-.53,2.58-2.58,2.58H258.66V375.4c0,2-1,2.58-2.58,2.58H247.3c-1.6,0-2.58-.53-2.58-2.58V332.06H231c-2,0-2.58-1-2.58-2.58v-7.37c0-1.6.53-2.58,2.58-2.58h41.2C274.29,319.54,274.82,320.52,274.82,322.12Z" transform="translate(-55.04 -25.65)"/><path class="cls-3" d="M326.95,378h-9.32c-2,0-2.66-.53-3.37-2.66l-2.49-7H290l-2.49,7c-0.71,2.13-1.42,2.66-3.38,2.66h-9.32c-2,0-2-1.42-1.51-2.49L293,322.3c0.71-1.86,1.69-2.75,3.64-2.75h8.52c2,0,2.84.89,3.64,2.75l19.62,53.19C328.9,376.55,328.9,378,326.95,378Zm-19.36-22.11-6.66-19.62-6.66,19.62h13.32Z" transform="translate(-55.04 -25.65)"/><path class="cls-3" d="M382.89,378H372.41c-2.13,0-3.2-.8-4.44-2.66L358.38,361c-0.8-1.07-1-2-1-4.53v-7.1c0-1.6.53-2.58,2.58-2.58h1.78c4.35,0,8.43-3,8.43-7.19,0-4.62-3.55-7.55-8.17-7.55H350.21V375.4c0,2-1,2.58-2.58,2.58h-8.79c-1.6,0-2.49-.53-2.49-2.58V322.21c0-1.6.44-2.58,2.49-2.58h22.38c9.68,0,13.94,2,17.67,5.68,3.29,3.2,5.15,8.26,5.15,13.94a19.12,19.12,0,0,1-12.34,17.67l12.52,18.2C385,376.37,384.57,378,382.89,378Z" transform="translate(-55.04 -25.65)"/><path class="cls-3" d="M437.58,322.12v7.37c0,1.6-.53,2.58-2.58,2.58H421.42V375.4c0,2-1,2.58-2.58,2.58h-8.79c-1.6,0-2.58-.53-2.58-2.58V332.06H393.81c-2,0-2.58-1-2.58-2.58v-7.37c0-1.6.53-2.58,2.58-2.58H435C437,319.54,437.58,320.52,437.58,322.12Z" transform="translate(-55.04 -25.65)"/><path class="cls-1" d="M124.79,409.75v3.78a1.14,1.14,0,0,1-1.34,1.34H102.79a1.14,1.14,0,0,1-1.34-1.34V385.86a1.14,1.14,0,0,1,1.34-1.34h19.88a1.14,1.14,0,0,1,1.34,1.34v3.83a1.14,1.14,0,0,1-1.34,1.34H108.74v5H121.1a1.14,1.14,0,0,1,1.34,1.34V401a1.14,1.14,0,0,1-1.34,1.34H108.74v6.09h14.71A1.14,1.14,0,0,1,124.79,409.75Z" transform="translate(-55.04 -25.65)"/><path class="cls-1" d="M152.78,405.62c0,6.26-4.93,9.25-11.72,9.25-5.51,0-11.85-3.17-11.85-9.34,0-1,.26-1.23,1.28-1.23h4.27c1,0,1.5.13,1.59,1.23a3,3,0,0,0,.84,1.81c0.88,1.06,2.69,1.45,4.32,1.45,2.38,0,4.32-.53,4.32-3s-3.92-2.51-7.67-3.7c-4.45-1.41-8.55-3.17-8.55-8.77s5.2-8.55,10.71-8.77c5.59,0,11.72,2.56,11.72,8.37,0,1.06-.26,1.23-1.28,1.23h-4.32c-0.84,0-1-.62-1.19-1.19a3.63,3.63,0,0,0-.93-1.32,5.86,5.86,0,0,0-3.74-1.19c-1.45,0-3.88.57-3.88,2.56,0,2.69,6.48,3.66,8.24,4.36C148.11,398.35,152.78,399.63,152.78,405.62Z" transform="translate(-55.04 -25.65)"/><path class="cls-1" d="M182.52,395.22c0,6.41-4.24,10.65-12.13,10.65H166v7.66a1.14,1.14,0,0,1-1.34,1.34h-4.57a1.14,1.14,0,0,1-1.34-1.34V385.86a1.14,1.14,0,0,1,1.34-1.34h10.38C178.37,384.52,182.52,388.86,182.52,395.22Zm-7,.14c0-2.4-1.57-4.34-5.17-4.34H166v8.62h4.43C174,399.65,175.56,397.67,175.56,395.36Z" transform="translate(-55.04 -25.65)"/><path class="cls-1" d="M211,404.91c0,7-6.61,10-11.85,10s-11.76-3-11.76-10V394.52c0-7,6.52-10,11.76-10s11.85,3,11.85,10v10.39Zm-6.91-9.78c0-2.82-2-4.45-4.93-4.45s-4.89,1.63-4.89,4.45v9.16c0,2.82,2,4.45,4.89,4.45s4.93-1.63,4.93-4.45v-9.16Z" transform="translate(-55.04 -25.65)"/><path class="cls-1" d="M241.6,414.87h-5.44a2.46,2.46,0,0,1-2.31-1.38l-5-7.43a3.42,3.42,0,0,1-.51-2.35V400a1.14,1.14,0,0,1,1.34-1.34h0.92c2.26,0,4.38-1.57,4.38-3.74a3.92,3.92,0,0,0-4.24-3.92h-6.13v22.51a1.14,1.14,0,0,1-1.34,1.34h-4.57a1.11,1.11,0,0,1-1.29-1.34V385.91a1.11,1.11,0,0,1,1.29-1.34h11.62c5,0,7.24,1,9.18,3a10,10,0,0,1,2.67,7.24,9.93,9.93,0,0,1-6.41,9.18l6.5,9.45A0.88,0.88,0,0,1,241.6,414.87Z" transform="translate(-55.04 -25.65)"/><path class="cls-1" d="M270,385.86v3.83a1.14,1.14,0,0,1-1.34,1.34h-7.06v22.51a1.14,1.14,0,0,1-1.34,1.34h-4.57a1.14,1.14,0,0,1-1.34-1.34V391h-7.1a1.14,1.14,0,0,1-1.34-1.34v-3.83a1.14,1.14,0,0,1,1.34-1.34h21.4A1.14,1.14,0,0,1,270,385.86Z" transform="translate(-55.04 -25.65)"/><path class="cls-1" d="M298.5,414.87c-5.24,0-11.8-3-11.8-10v-10.4c0-6.92,6.56-10,11.8-10,5.46,0,10.88,2.77,11.45,8.37,0,1.06-.35,1.28-1.37,1.28h-4.23c-0.92,0-1-.84-1.32-1.37-0.92-1.45-2.16-2.11-4.54-2.11-2.91,0-4.89,1.63-4.89,4.4v9.16c0,2.82,2,4.4,4.89,4.4,2.38,0,4.27-.88,4.62-3,0.13-.88.22-1.59,1.19-1.59h4.32c1,0,1.32.44,1.32,1.5C309.95,411.3,304,414.87,298.5,414.87Z" transform="translate(-55.04 -25.65)"/><path class="cls-1" d="M338.12,409.75v3.78a1.14,1.14,0,0,1-1.34,1.34H317.6a1.14,1.14,0,0,1-1.34-1.34V385.86a1.14,1.14,0,0,1,1.34-1.34h4.57a1.14,1.14,0,0,1,1.34,1.34v22.55h13.28A1.14,1.14,0,0,1,338.12,409.75Z" transform="translate(-55.04 -25.65)"/><path class="cls-1" d="M366.85,385.83v19.3c0,7.08-6.58,9.74-11.95,9.74s-11.9-2.66-11.9-9.74v-19.3a1.11,1.11,0,0,1,1.31-1.31h4.46a1.12,1.12,0,0,1,1.31,1.31v18.31c0,2.84,1.85,4.46,4.82,4.46s4.87-1.62,4.87-4.46V385.83a1.11,1.11,0,0,1,1.31-1.31h4.46A1.12,1.12,0,0,1,366.85,385.83Z" transform="translate(-55.04 -25.65)"/><path class="cls-1" d="M399.45,406c0,5.86-4.57,8.85-11,8.85H374.92a1.14,1.14,0,0,1-1.34-1.34V385.81a1.14,1.14,0,0,1,1.34-1.34h12.91c7.52,0,10.75,4,10.75,8.35,0,4.66-3,6.13-3.37,6.32A7.28,7.28,0,0,1,399.45,406Zm-7.33-.69c0-2.17-1.61-2.81-3.83-2.81h-1.06a1.14,1.14,0,0,1-1.34-1.34v-3.5a1.14,1.14,0,0,1,1.34-1.34h0.6c2.67,0,3.83-1,3.83-2.77,0-2.07-1.43-2.58-3.83-2.58h-7v17.34h7.75C390.83,408.32,392.12,407.4,392.12,405.32Z" transform="translate(-55.04 -25.65)"/></svg>